<svg width="215" height="210" viewBox="0 0 215 210" fill="none" xmlns="http://www.w3.org/2000/svg">
<g filter="url(#filter0_d_7_829)">
<path d="M179.082 4H20.3831C11.4094 4 4.13477 11.2929 4.13477 20.2892V123.679C4.13477 132.675 11.4094 139.968 20.3831 139.968H179.082C188.056 139.968 195.331 132.675 195.331 123.679V20.2892C195.331 11.2929 188.056 4 179.082 4Z" fill="#E75A55"/>
</g>
<g filter="url(#filter1_d_7_829)">
<path d="M79.951 29.0235V114.944C79.951 120.811 84.6951 125.567 90.5474 125.567H108.91C114.762 125.567 119.507 120.811 119.507 114.944V29.0235C119.507 23.1566 114.762 18.4005 108.91 18.4005H90.5474C84.6951 18.4005 79.951 23.1566 79.951 29.0235Z" fill="#FAE1CA"/>
</g>
<g filter="url(#filter2_d_7_829)">
<path d="M142.583 53.0988H56.8782C51.026 53.0988 46.2818 57.8549 46.2818 63.7218V82.1309C46.2818 87.9978 51.026 92.7539 56.8782 92.7539H142.583C148.436 92.7539 153.18 87.9978 153.18 82.1309V63.7218C153.18 57.8549 148.436 53.0988 142.583 53.0988Z" fill="#FAE1CA"/>
</g>
<path d="M88.4054 28.0164C89.3164 28.0164 90.0549 27.2761 90.0549 26.3628C90.0549 25.4496 89.3164 24.7092 88.4054 24.7092C87.4944 24.7092 86.756 25.4496 86.756 26.3628C86.756 27.2761 87.4944 28.0164 88.4054 28.0164Z" fill="#E4A26F"/>
<path d="M99.7835 28.0164C100.694 28.0164 101.433 27.2761 101.433 26.3628C101.433 25.4496 100.694 24.7092 99.7835 24.7092C98.8725 24.7092 98.134 25.4496 98.134 26.3628C98.134 27.2761 98.8725 28.0164 99.7835 28.0164Z" fill="#E4A26F"/>
<path d="M105.287 46.6254C106.198 46.6254 106.936 45.885 106.936 44.9718C106.936 44.0585 106.198 43.3182 105.287 43.3182C104.376 43.3182 103.637 44.0585 103.637 44.9718C103.637 45.885 104.376 46.6254 105.287 46.6254Z" fill="#E4A26F"/>
<path d="M93.0137 46.6254C93.9247 46.6254 94.6632 45.885 94.6632 44.9718C94.6632 44.0585 93.9247 43.3182 93.0137 43.3182C92.1027 43.3182 91.3643 44.0585 91.3643 44.9718C91.3643 45.885 92.1027 46.6254 93.0137 46.6254Z" fill="#E4A26F"/>
<path d="M111.158 28.0164C112.069 28.0164 112.807 27.2761 112.807 26.3628C112.807 25.4496 112.069 24.7092 111.158 24.7092C110.247 24.7092 109.508 25.4496 109.508 26.3628C109.508 27.2761 110.247 28.0164 111.158 28.0164Z" fill="#E4A26F"/>
<path d="M88.4054 37.4208C89.3164 37.4208 90.0549 36.6805 90.0549 35.7672C90.0549 34.854 89.3164 34.1136 88.4054 34.1136C87.4944 34.1136 86.756 34.854 86.756 35.7672C86.756 36.6805 87.4944 37.4208 88.4054 37.4208Z" fill="#E4A26F"/>
<path d="M99.7835 37.4208C100.694 37.4208 101.433 36.6805 101.433 35.7672C101.433 34.854 100.694 34.1136 99.7835 34.1136C98.8725 34.1136 98.134 34.854 98.134 35.7672C98.134 36.6805 98.8725 37.4208 99.7835 37.4208Z" fill="#E4A26F"/>
<path d="M111.158 37.4208C112.069 37.4208 112.807 36.6805 112.807 35.7672C112.807 34.854 112.069 34.1136 111.158 34.1136C110.247 34.1136 109.508 34.854 109.508 35.7672C109.508 36.6805 110.247 37.4208 111.158 37.4208Z" fill="#E4A26F"/>
<path d="M111.158 119.905C112.069 119.905 112.807 119.165 112.807 118.252C112.807 117.338 112.069 116.598 111.158 116.598C110.247 116.598 109.508 117.338 109.508 118.252C109.508 119.165 110.247 119.905 111.158 119.905Z" fill="#E4A26F"/>
<path d="M99.7835 119.905C100.694 119.905 101.433 119.165 101.433 118.252C101.433 117.338 100.694 116.598 99.7835 116.598C98.8725 116.598 98.134 117.338 98.134 118.252C98.134 119.165 98.8725 119.905 99.7835 119.905Z" fill="#E4A26F"/>
<path d="M94.2762 101.296C95.1872 101.296 95.9256 100.556 95.9256 99.6426C95.9256 98.7294 95.1872 97.989 94.2762 97.989C93.3652 97.989 92.6267 98.7294 92.6267 99.6426C92.6267 100.556 93.3652 101.296 94.2762 101.296Z" fill="#E4A26F"/>
<path d="M106.553 101.296C107.464 101.296 108.203 100.556 108.203 99.6426C108.203 98.7294 107.464 97.989 106.553 97.989C105.642 97.989 104.904 98.7294 104.904 99.6426C104.904 100.556 105.642 101.296 106.553 101.296Z" fill="#E4A26F"/>
<path d="M88.4054 119.905C89.3164 119.905 90.0549 119.165 90.0549 118.252C90.0549 117.338 89.3164 116.598 88.4054 116.598C87.4944 116.598 86.756 117.338 86.756 118.252C86.756 119.165 87.4944 119.905 88.4054 119.905Z" fill="#E4A26F"/>
<path d="M111.158 110.505C112.069 110.505 112.807 109.764 112.807 108.851C112.807 107.938 112.069 107.197 111.158 107.197C110.247 107.197 109.508 107.938 109.508 108.851C109.508 109.764 110.247 110.505 111.158 110.505Z" fill="#E4A26F"/>
<path d="M99.7835 110.505C100.694 110.505 101.433 109.764 101.433 108.851C101.433 107.938 100.694 107.197 99.7835 107.197C98.8725 107.197 98.134 107.938 98.134 108.851C98.134 109.764 98.8725 110.505 99.7835 110.505Z" fill="#E4A26F"/>
<path d="M88.4054 110.505C89.3164 110.505 90.0549 109.764 90.0549 108.851C90.0549 107.938 89.3164 107.197 88.4054 107.197C87.4944 107.197 86.756 107.938 86.756 108.851C86.756 109.764 87.4944 110.505 88.4054 110.505Z" fill="#E4A26F"/>
<path d="M146.34 63.3809C147.25 63.3809 147.989 62.6405 147.989 61.7273C147.989 60.814 147.25 60.0737 146.34 60.0737C145.429 60.0737 144.69 60.814 144.69 61.7273C144.69 62.6405 145.429 63.3809 146.34 63.3809Z" fill="#E4A26F"/>
<path d="M146.34 74.7876C147.25 74.7876 147.989 74.0473 147.989 73.134C147.989 72.2208 147.25 71.4804 146.34 71.4804C145.429 71.4804 144.69 72.2208 144.69 73.134C144.69 74.0473 145.429 74.7876 146.34 74.7876Z" fill="#E4A26F"/>
<path d="M127.777 80.3049C128.688 80.3049 129.427 79.5645 129.427 78.6513C129.427 77.738 128.688 76.9977 127.777 76.9977C126.866 76.9977 126.128 77.738 126.128 78.6513C126.128 79.5645 126.866 80.3049 127.777 80.3049Z" fill="#E4A26F"/>
<path d="M127.777 68.0008C128.688 68.0008 129.427 67.2604 129.427 66.3472C129.427 65.4339 128.688 64.6936 127.777 64.6936C126.866 64.6936 126.128 65.4339 126.128 66.3472C126.128 67.2604 126.866 68.0008 127.777 68.0008Z" fill="#E4A26F"/>
<path d="M146.34 86.1905C147.25 86.1905 147.989 85.4501 147.989 84.5368C147.989 83.6236 147.25 82.8832 146.34 82.8832C145.429 82.8832 144.69 83.6236 144.69 84.5368C144.69 85.4501 145.429 86.1905 146.34 86.1905Z" fill="#E4A26F"/>
<path d="M136.963 63.3809C137.874 63.3809 138.612 62.6405 138.612 61.7273C138.612 60.814 137.874 60.0737 136.963 60.0737C136.052 60.0737 135.313 60.814 135.313 61.7273C135.313 62.6405 136.052 63.3809 136.963 63.3809Z" fill="#E4A26F"/>
<path d="M136.963 74.7876C137.874 74.7876 138.612 74.0473 138.612 73.134C138.612 72.2208 137.874 71.4804 136.963 71.4804C136.052 71.4804 135.313 72.2208 135.313 73.134C135.313 74.0473 136.052 74.7876 136.963 74.7876Z" fill="#E4A26F"/>
<path d="M136.963 86.1905C137.874 86.1905 138.612 85.4501 138.612 84.5368C138.612 83.6236 137.874 82.8832 136.963 82.8832C136.052 82.8832 135.313 83.6236 135.313 84.5368C135.313 85.4501 136.052 86.1905 136.963 86.1905Z" fill="#E4A26F"/>
<path d="M52.7897 86.1905C53.7007 86.1905 54.4392 85.4501 54.4392 84.5368C54.4392 83.6236 53.7007 82.8832 52.7897 82.8832C51.8787 82.8832 51.1403 83.6236 51.1403 84.5368C51.1403 85.4501 51.8787 86.1905 52.7897 86.1905Z" fill="#E4A26F"/>
<path d="M52.7897 74.7876C53.7007 74.7876 54.4392 74.0473 54.4392 73.134C54.4392 72.2208 53.7007 71.4804 52.7897 71.4804C51.8787 71.4804 51.1403 72.2208 51.1403 73.134C51.1403 74.0473 51.8787 74.7876 52.7897 74.7876Z" fill="#E4A26F"/>
<path d="M71.3519 69.2665C72.2629 69.2665 73.0014 68.5261 73.0014 67.6129C73.0014 66.6996 72.2629 65.9593 71.3519 65.9593C70.4409 65.9593 69.7025 66.6996 69.7025 67.6129C69.7025 68.5261 70.4409 69.2665 71.3519 69.2665Z" fill="#E4A26F"/>
<path d="M71.3519 81.5745C72.2629 81.5745 73.0014 80.8341 73.0014 79.9208C73.0014 79.0076 72.2629 78.2672 71.3519 78.2672C70.4409 78.2672 69.7025 79.0076 69.7025 79.9208C69.7025 80.8341 70.4409 81.5745 71.3519 81.5745Z" fill="#E4A26F"/>
<path d="M52.7897 63.3809C53.7007 63.3809 54.4392 62.6405 54.4392 61.7273C54.4392 60.814 53.7007 60.0737 52.7897 60.0737C51.8787 60.0737 51.1403 60.814 51.1403 61.7273C51.1403 62.6405 51.8787 63.3809 52.7897 63.3809Z" fill="#E4A26F"/>
<path d="M62.1705 86.1905C63.0814 86.1905 63.8199 85.4501 63.8199 84.5368C63.8199 83.6236 63.0814 82.8832 62.1705 82.8832C61.2595 82.8832 60.521 83.6236 60.521 84.5368C60.521 85.4501 61.2595 86.1905 62.1705 86.1905Z" fill="#E4A26F"/>
<path d="M62.1705 74.7876C63.0814 74.7876 63.8199 74.0473 63.8199 73.134C63.8199 72.2208 63.0814 71.4804 62.1705 71.4804C61.2595 71.4804 60.521 72.2208 60.521 73.134C60.521 74.0473 61.2595 74.7876 62.1705 74.7876Z" fill="#E4A26F"/>
<path d="M62.1705 63.3809C63.0814 63.3809 63.8199 62.6406 63.8199 61.7273C63.8199 60.814 63.0814 60.0737 62.1705 60.0737C61.2595 60.0737 60.521 60.814 60.521 61.7273C60.521 62.6406 61.2595 63.3809 62.1705 63.3809Z" fill="#E4A26F"/>
<path d="M116.903 57.076H82.773C80.2107 57.076 78.1335 59.1585 78.1335 61.7273V83.9412C78.1335 86.51 80.2107 88.5925 82.773 88.5925H116.903C119.466 88.5925 121.543 86.51 121.543 83.9412V61.7273C121.543 59.1585 119.466 57.076 116.903 57.076Z" fill="#F4BA91"/>
<path d="M115.872 64.5564C116.782 64.5564 117.521 63.8161 117.521 62.9028C117.521 61.9896 116.782 61.2492 115.872 61.2492C114.961 61.2492 114.222 61.9896 114.222 62.9028C114.222 63.8161 114.961 64.5564 115.872 64.5564Z" fill="#E4A26F"/>
<path d="M115.872 74.2233C116.782 74.2233 117.521 73.483 117.521 72.5697C117.521 71.6565 116.782 70.9161 115.872 70.9161C114.961 70.9161 114.222 71.6565 114.222 72.5697C114.222 73.483 114.961 74.2233 115.872 74.2233Z" fill="#E4A26F"/>
<path d="M115.872 83.8903C116.782 83.8903 117.521 83.1499 117.521 82.2367C117.521 81.3234 116.782 80.5831 115.872 80.5831C114.961 80.5831 114.222 81.3234 114.222 82.2367C114.222 83.1499 114.961 83.8903 115.872 83.8903Z" fill="#E4A26F"/>
<path d="M108.82 64.5564C109.731 64.5564 110.47 63.8161 110.47 62.9028C110.47 61.9896 109.731 61.2492 108.82 61.2492C107.909 61.2492 107.171 61.9896 107.171 62.9028C107.171 63.8161 107.909 64.5564 108.82 64.5564Z" fill="#E4A26F"/>
<path d="M108.82 74.2233C109.731 74.2233 110.47 73.483 110.47 72.5697C110.47 71.6565 109.731 70.9161 108.82 70.9161C107.909 70.9161 107.171 71.6565 107.171 72.5697C107.171 73.483 107.909 74.2233 108.82 74.2233Z" fill="#E4A26F"/>
<path d="M108.82 83.8903C109.731 83.8903 110.47 83.1499 110.47 82.2367C110.47 81.3234 109.731 80.5831 108.82 80.5831C107.909 80.5831 107.171 81.3234 107.171 82.2367C107.171 83.1499 107.909 83.8903 108.82 83.8903Z" fill="#E4A26F"/>
<path d="M101.769 64.5564C102.68 64.5564 103.419 63.8161 103.419 62.9028C103.419 61.9896 102.68 61.2492 101.769 61.2492C100.858 61.2492 100.12 61.9896 100.12 62.9028C100.12 63.8161 100.858 64.5564 101.769 64.5564Z" fill="#E4A26F"/>
<path d="M101.769 74.2233C102.68 74.2233 103.419 73.483 103.419 72.5697C103.419 71.6565 102.68 70.9161 101.769 70.9161C100.858 70.9161 100.12 71.6565 100.12 72.5697C100.12 73.483 100.858 74.2233 101.769 74.2233Z" fill="#E4A26F"/>
<path d="M101.769 83.8903C102.68 83.8903 103.419 83.1499 103.419 82.2367C103.419 81.3234 102.68 80.5831 101.769 80.5831C100.858 80.5831 100.12 81.3234 100.12 82.2367C100.12 83.1499 100.858 83.8903 101.769 83.8903Z" fill="#E4A26F"/>
<path d="M94.7179 64.5564C95.6289 64.5564 96.3674 63.8161 96.3674 62.9028C96.3674 61.9896 95.6289 61.2492 94.7179 61.2492C93.8069 61.2492 93.0685 61.9896 93.0685 62.9028C93.0685 63.8161 93.8069 64.5564 94.7179 64.5564Z" fill="#E4A26F"/>
<path d="M85.4387 69.6583C86.3497 69.6583 87.0882 68.9179 87.0882 68.0047C87.0882 67.0914 86.3497 66.3511 85.4387 66.3511C84.5278 66.3511 83.7893 67.0914 83.7893 68.0047C83.7893 68.9179 84.5278 69.6583 85.4387 69.6583Z" fill="#E4A26F"/>
<path d="M85.4387 80.7633C86.3497 80.7633 87.0882 80.023 87.0882 79.1097C87.0882 78.1965 86.3497 77.4561 85.4387 77.4561C84.5278 77.4561 83.7893 78.1965 83.7893 79.1097C83.7893 80.023 84.5278 80.7633 85.4387 80.7633Z" fill="#E4A26F"/>
<path d="M94.7179 74.2233C95.6289 74.2233 96.3674 73.483 96.3674 72.5697C96.3674 71.6565 95.6289 70.9161 94.7179 70.9161C93.8069 70.9161 93.0685 71.6565 93.0685 72.5697C93.0685 73.483 93.8069 74.2233 94.7179 74.2233Z" fill="#E4A26F"/>
<path d="M94.7179 83.8903C95.6289 83.8903 96.3674 83.1499 96.3674 82.2367C96.3674 81.3234 95.6289 80.5831 94.7179 80.5831C93.8069 80.5831 93.0685 81.3234 93.0685 82.2367C93.0685 83.1499 93.8069 83.8903 94.7179 83.8903Z" fill="#E4A26F"/>
<path d="M6.89413 180.814V158.414H11.7581L19.9181 171.694L16.4301 171.662L24.6861 158.414H29.3581V180.814H24.0781V173.838C24.0781 171.918 24.1208 170.19 24.2061 168.654C24.3128 167.118 24.4835 165.593 24.7181 164.078L25.3261 165.742L19.1181 175.374H17.0061L10.9261 165.806L11.5341 164.078C11.7688 165.508 11.9288 166.98 12.0141 168.494C12.1208 169.988 12.1741 171.769 12.1741 173.838V180.814H6.89413ZM34.9879 180.814V158.414H50.6039V163.054H40.2679V176.174H50.9239V180.814H34.9879ZM37.5479 171.63V167.214H49.1639V171.63H37.5479ZM55.6129 180.814V158.414H64.9889C66.6315 158.414 68.1355 158.692 69.5009 159.246C70.8662 159.78 72.0395 160.548 73.0209 161.55C74.0235 162.553 74.7915 163.737 75.3249 165.102C75.8582 166.468 76.1249 167.972 76.1249 169.614C76.1249 171.257 75.8582 172.772 75.3249 174.158C74.7915 175.524 74.0235 176.708 73.0209 177.71C72.0395 178.692 70.8662 179.46 69.5009 180.014C68.1355 180.548 66.6315 180.814 64.9889 180.814H55.6129ZM61.0529 177.102L60.3169 176.014H64.8289C65.7249 176.014 66.5249 175.865 67.2289 175.566C67.9329 175.246 68.5302 174.809 69.0209 174.254C69.5329 173.7 69.9275 173.028 70.2049 172.238C70.4822 171.449 70.6209 170.574 70.6209 169.614C70.6209 168.654 70.4822 167.78 70.2049 166.99C69.9275 166.201 69.5329 165.529 69.0209 164.974C68.5302 164.42 67.9329 163.993 67.2289 163.694C66.5249 163.374 65.7249 163.214 64.8289 163.214H60.2209L61.0529 162.19V177.102ZM79.4149 180.814V176.238H83.1909V162.99H79.4149V158.414H92.4389V162.99H88.6309V176.238H92.4389V180.814H79.4149ZM97.6129 180.814V158.414H103.053V176.014H113.037V180.814H97.6129ZM116.665 180.814V176.238H120.441V162.99H116.665V158.414H129.689V162.99H125.881V176.238H129.689V180.814H116.665ZM141.135 180.814L132.175 158.414H137.839L142.159 169.838C142.415 170.5 142.628 171.076 142.799 171.566C142.991 172.057 143.151 172.516 143.279 172.942C143.428 173.369 143.556 173.806 143.663 174.254C143.791 174.681 143.93 175.172 144.079 175.726H143.087C143.258 175.001 143.428 174.361 143.599 173.806C143.77 173.23 143.962 172.644 144.175 172.046C144.388 171.428 144.655 170.692 144.975 169.838L149.135 158.414H154.703L145.679 180.814H141.135ZM157.644 180.814V158.414H173.26V163.054H162.924V176.174H173.58V180.814H157.644ZM160.204 171.63V167.214H171.82V171.63H160.204ZM178.269 180.814V158.414H188.349C189.778 158.414 191.069 158.724 192.221 159.342C193.394 159.961 194.312 160.814 194.973 161.902C195.634 162.969 195.965 164.185 195.965 165.55C195.965 166.958 195.634 168.228 194.973 169.358C194.312 170.468 193.405 171.342 192.253 171.982C191.101 172.622 189.8 172.942 188.349 172.942H183.453V180.814H178.269ZM190.685 180.814L184.989 170.702L190.557 169.902L196.893 180.814H190.685ZM183.453 168.782H187.869C188.424 168.782 188.904 168.665 189.309 168.43C189.736 168.174 190.056 167.822 190.269 167.374C190.504 166.926 190.621 166.414 190.621 165.838C190.621 165.262 190.493 164.761 190.237 164.334C189.981 163.886 189.608 163.545 189.117 163.31C188.648 163.076 188.072 162.958 187.389 162.958H183.453V168.782Z" fill="#E2AD5F"/>
<path d="M8.82944 205.814V193.865H10.6389L14.9917 200.949L14.1211 200.932L18.5252 193.865H20.2322V205.814H18.3886V200.915C18.3886 199.891 18.4114 198.969 18.4569 198.15C18.5138 197.33 18.6049 196.517 18.73 195.709L18.969 196.34L15.06 202.383H13.9334L10.1438 196.409L10.3316 195.709C10.4568 196.471 10.5421 197.257 10.5876 198.064C10.6445 198.861 10.673 199.811 10.673 200.915V205.814H8.82944ZM30.7346 205.985C29.8129 205.985 28.9935 205.792 28.2766 205.405C27.571 205.006 27.0134 204.466 26.6037 203.783C26.2054 203.1 26.0063 202.315 26.0063 201.427C26.0063 200.722 26.1201 200.079 26.3477 199.498C26.5753 198.918 26.8882 198.417 27.2865 197.996C27.6962 197.564 28.1798 197.234 28.7375 197.006C29.3065 196.767 29.921 196.648 30.581 196.648C31.1614 196.648 31.7019 196.761 32.2027 196.989C32.7034 197.205 33.1358 197.507 33.5 197.894C33.8755 198.281 34.16 198.742 34.3535 199.276C34.5583 199.8 34.6551 200.375 34.6437 201.001L34.6266 201.752H27.3036L26.911 200.352H33.1074L32.8513 200.642V200.232C32.8172 199.857 32.692 199.521 32.4758 199.225C32.2596 198.929 31.9864 198.696 31.6564 198.525C31.3264 198.355 30.9679 198.269 30.581 198.269C29.9665 198.269 29.4487 198.389 29.0276 198.628C28.6066 198.855 28.2879 199.197 28.0717 199.652C27.8555 200.096 27.7474 200.648 27.7474 201.308C27.7474 201.934 27.8783 202.48 28.14 202.947C28.4017 203.402 28.7716 203.754 29.2496 204.005C29.7275 204.255 30.2794 204.38 30.9053 204.38C31.3492 204.38 31.7588 204.306 32.1344 204.158C32.5213 204.011 32.9367 203.743 33.3805 203.356L34.2681 204.602C33.995 204.875 33.6593 205.114 33.261 205.319C32.8741 205.524 32.4587 205.689 32.0149 205.814C31.5825 205.928 31.1557 205.985 30.7346 205.985ZM43.7068 205.985C42.8874 205.985 42.1534 205.786 41.5048 205.388C40.8675 204.978 40.3611 204.426 39.9855 203.732C39.61 203.026 39.4222 202.224 39.4222 201.325C39.4222 200.426 39.6043 199.629 39.9685 198.935C40.344 198.229 40.8504 197.678 41.4877 197.279C42.125 196.87 42.8476 196.665 43.6556 196.665C44.0994 196.665 44.5261 196.739 44.9358 196.887C45.3569 197.023 45.7324 197.217 46.0624 197.467C46.3925 197.706 46.6485 197.973 46.8306 198.269C47.0241 198.554 47.1208 198.844 47.1208 199.14L46.6087 199.174V193.182H48.3669V205.814H46.6087V203.681H46.9501C46.9501 203.954 46.859 204.227 46.677 204.5C46.4949 204.762 46.2502 205.006 45.943 205.234C45.6471 205.461 45.3 205.644 44.9017 205.78C44.5148 205.917 44.1165 205.985 43.7068 205.985ZM43.9458 204.466C44.4806 204.466 44.9529 204.329 45.3626 204.056C45.7723 203.783 46.0909 203.413 46.3185 202.947C46.5575 202.469 46.677 201.928 46.677 201.325C46.677 200.722 46.5575 200.187 46.3185 199.72C46.0909 199.242 45.7723 198.867 45.3626 198.594C44.9529 198.321 44.4806 198.184 43.9458 198.184C43.4109 198.184 42.9386 198.321 42.529 198.594C42.1193 198.867 41.7949 199.242 41.556 199.72C41.3284 200.187 41.2146 200.722 41.2146 201.325C41.2146 201.928 41.3284 202.469 41.556 202.947C41.7949 203.413 42.1193 203.783 42.529 204.056C42.9386 204.329 43.4109 204.466 43.9458 204.466ZM54.4914 205.814V196.853H56.2496V205.814H54.4914ZM55.3449 194.872C54.9694 194.872 54.6792 194.776 54.4744 194.582C54.2695 194.389 54.1671 194.116 54.1671 193.763C54.1671 193.433 54.2695 193.165 54.4744 192.961C54.6906 192.756 54.9808 192.653 55.3449 192.653C55.7205 192.653 56.0107 192.75 56.2155 192.943C56.4203 193.137 56.5228 193.41 56.5228 193.763C56.5228 194.093 56.4146 194.36 56.1984 194.565C55.9936 194.77 55.7091 194.872 55.3449 194.872ZM66.1728 205.985C65.342 205.985 64.5966 205.78 63.9366 205.37C63.2879 204.961 62.7701 204.403 62.3832 203.698C62.0077 202.992 61.8199 202.201 61.8199 201.325C61.8199 200.449 62.0077 199.658 62.3832 198.952C62.7701 198.247 63.2879 197.689 63.9366 197.279C64.5966 196.87 65.342 196.665 66.1728 196.665C66.9694 196.665 67.692 196.83 68.3407 197.16C69.0007 197.478 69.5014 197.917 69.8428 198.474L68.8698 199.669C68.6877 199.407 68.4545 199.168 68.17 198.952C67.8855 198.736 67.5839 198.565 67.2652 198.44C66.9466 198.315 66.6393 198.252 66.3435 198.252C65.7972 198.252 65.3079 198.389 64.8754 198.662C64.4544 198.924 64.1187 199.288 63.8683 199.754C63.618 200.221 63.4928 200.744 63.4928 201.325C63.4928 201.905 63.6236 202.429 63.8854 202.895C64.1471 203.35 64.4942 203.715 64.9267 203.988C65.3591 204.261 65.8371 204.397 66.3605 204.397C66.6678 204.397 66.9637 204.346 67.2482 204.244C67.5441 204.141 67.8286 203.988 68.1017 203.783C68.3748 203.578 68.6308 203.328 68.8698 203.032L69.8428 204.227C69.4787 204.739 68.9552 205.16 68.2724 205.49C67.601 205.82 66.9011 205.985 66.1728 205.985ZM78.3634 205.985C77.6237 205.985 76.9466 205.78 76.3321 205.37C75.7289 204.961 75.2453 204.403 74.8811 203.698C74.517 202.992 74.3349 202.195 74.3349 201.308C74.3349 200.409 74.517 199.612 74.8811 198.918C75.2567 198.212 75.7574 197.66 76.3833 197.262C77.0206 196.864 77.7318 196.665 78.517 196.665C78.9836 196.665 79.4104 196.733 79.7973 196.87C80.1842 197.006 80.5199 197.2 80.8044 197.45C81.1003 197.689 81.3393 197.968 81.5214 198.286C81.7148 198.605 81.8343 198.946 81.8798 199.311L81.4872 199.174V196.853H83.2625V205.814H81.4872V203.681L81.8969 203.561C81.8286 203.868 81.6864 204.17 81.4702 204.466C81.2653 204.75 80.9979 205.006 80.6679 205.234C80.3492 205.461 79.9908 205.644 79.5925 205.78C79.2055 205.917 78.7959 205.985 78.3634 205.985ZM78.8243 204.363C79.3592 204.363 79.8314 204.232 80.2411 203.971C80.6508 203.709 80.9694 203.35 81.197 202.895C81.436 202.429 81.5555 201.9 81.5555 201.308C81.5555 200.727 81.436 200.21 81.197 199.754C80.9694 199.299 80.6508 198.941 80.2411 198.679C79.8314 198.417 79.3592 198.286 78.8243 198.286C78.3008 198.286 77.8342 198.417 77.4246 198.679C77.0263 198.941 76.7076 199.299 76.4686 199.754C76.241 200.21 76.1272 200.727 76.1272 201.308C76.1272 201.9 76.241 202.429 76.4686 202.895C76.7076 203.35 77.0263 203.709 77.4246 203.971C77.8342 204.232 78.3008 204.363 78.8243 204.363ZM89.1655 205.814V193.182H90.9237V205.814H89.1655ZM105.472 205.814V193.865H110.149C111.002 193.865 111.77 194.008 112.453 194.292C113.147 194.577 113.739 194.986 114.229 195.521C114.718 196.056 115.093 196.688 115.355 197.416C115.617 198.144 115.748 198.952 115.748 199.84C115.748 200.727 115.617 201.541 115.355 202.281C115.093 203.009 114.718 203.641 114.229 204.176C113.751 204.699 113.165 205.103 112.47 205.388C111.776 205.672 111.002 205.814 110.149 205.814H105.472ZM107.315 204.227L107.264 204.039H110.063C110.667 204.039 111.201 203.942 111.668 203.749C112.146 203.555 112.544 203.282 112.863 202.929C113.193 202.565 113.443 202.121 113.614 201.598C113.785 201.074 113.87 200.488 113.87 199.84C113.87 199.191 113.785 198.611 113.614 198.099C113.443 197.575 113.193 197.131 112.863 196.767C112.533 196.403 112.135 196.124 111.668 195.931C111.201 195.737 110.667 195.641 110.063 195.641H107.213L107.315 195.487V204.227ZM125.393 205.985C124.471 205.985 123.652 205.792 122.935 205.405C122.229 205.006 121.672 204.466 121.262 203.783C120.864 203.1 120.665 202.315 120.665 201.427C120.665 200.722 120.779 200.079 121.006 199.498C121.234 198.918 121.547 198.417 121.945 197.996C122.355 197.564 122.838 197.234 123.396 197.006C123.965 196.767 124.579 196.648 125.24 196.648C125.82 196.648 126.36 196.761 126.861 196.989C127.362 197.205 127.794 197.507 128.158 197.894C128.534 198.281 128.819 198.742 129.012 199.276C129.217 199.8 129.314 200.375 129.302 201.001L129.285 201.752H121.962L121.569 200.352H127.766L127.51 200.642V200.232C127.476 199.857 127.35 199.521 127.134 199.225C126.918 198.929 126.645 198.696 126.315 198.525C125.985 198.355 125.626 198.269 125.24 198.269C124.625 198.269 124.107 198.389 123.686 198.628C123.265 198.855 122.946 199.197 122.73 199.652C122.514 200.096 122.406 200.648 122.406 201.308C122.406 201.934 122.537 202.48 122.798 202.947C123.06 203.402 123.43 203.754 123.908 204.005C124.386 204.255 124.938 204.38 125.564 204.38C126.008 204.38 126.417 204.306 126.793 204.158C127.18 204.011 127.595 203.743 128.039 203.356L128.927 204.602C128.654 204.875 128.318 205.114 127.919 205.319C127.533 205.524 127.117 205.689 126.673 205.814C126.241 205.928 125.814 205.985 125.393 205.985ZM134.661 205.814V193.182H136.419V205.814H134.661ZM142.615 205.814V196.853H144.374V205.814H142.615ZM143.469 194.872C143.093 194.872 142.803 194.776 142.598 194.582C142.393 194.389 142.291 194.116 142.291 193.763C142.291 193.433 142.393 193.165 142.598 192.961C142.814 192.756 143.105 192.653 143.469 192.653C143.844 192.653 144.135 192.75 144.339 192.943C144.544 193.137 144.647 193.41 144.647 193.763C144.647 194.093 144.539 194.36 144.322 194.565C144.117 194.77 143.833 194.872 143.469 194.872ZM153.426 205.814L149.637 196.853H151.531L154.262 203.561L153.938 203.715L156.857 196.853H158.667L154.689 205.814H153.426ZM167.621 205.985C166.7 205.985 165.88 205.792 165.163 205.405C164.458 205.006 163.9 204.466 163.49 203.783C163.092 203.1 162.893 202.315 162.893 201.427C162.893 200.722 163.007 200.079 163.234 199.498C163.462 198.918 163.775 198.417 164.173 197.996C164.583 197.564 165.067 197.234 165.624 197.006C166.193 196.767 166.808 196.648 167.468 196.648C168.048 196.648 168.589 196.761 169.089 196.989C169.59 197.205 170.023 197.507 170.387 197.894C170.762 198.281 171.047 198.742 171.24 199.276C171.445 199.8 171.542 200.375 171.53 201.001L171.513 201.752H164.19L163.798 200.352H169.994L169.738 200.642V200.232C169.704 199.857 169.579 199.521 169.363 199.225C169.146 198.929 168.873 198.696 168.543 198.525C168.213 198.355 167.855 198.269 167.468 198.269C166.853 198.269 166.335 198.389 165.914 198.628C165.493 198.855 165.175 199.197 164.958 199.652C164.742 200.096 164.634 200.648 164.634 201.308C164.634 201.934 164.765 202.48 165.027 202.947C165.288 203.402 165.658 203.754 166.136 204.005C166.614 204.255 167.166 204.38 167.792 204.38C168.236 204.38 168.646 204.306 169.021 204.158C169.408 204.011 169.823 203.743 170.267 203.356L171.155 204.602C170.882 204.875 170.546 205.114 170.148 205.319C169.761 205.524 169.345 205.689 168.902 205.814C168.469 205.928 168.042 205.985 167.621 205.985ZM176.855 205.814V196.853H178.63V199.669L178.46 198.986C178.585 198.554 178.795 198.161 179.091 197.808C179.399 197.456 179.746 197.177 180.133 196.972C180.531 196.767 180.941 196.665 181.362 196.665C181.555 196.665 181.737 196.682 181.908 196.716C182.09 196.75 182.232 196.79 182.335 196.835L181.874 198.747C181.737 198.69 181.584 198.645 181.413 198.611C181.254 198.565 181.094 198.542 180.935 198.542C180.628 198.542 180.332 198.605 180.047 198.73C179.774 198.844 179.529 199.009 179.313 199.225C179.108 199.43 178.943 199.675 178.818 199.959C178.693 200.232 178.63 200.534 178.63 200.864V205.814H176.855ZM188.656 209.74L190.465 205.558L190.482 206.958L186.01 196.853H188.059L190.858 203.442C190.915 203.555 190.983 203.732 191.063 203.971C191.143 204.198 191.211 204.426 191.268 204.654L190.824 204.756C190.915 204.517 191 204.278 191.08 204.039C191.171 203.8 191.256 203.561 191.336 203.322L193.675 196.853H195.757L192.07 205.814L190.551 209.74H188.656Z" fill="#FCDEC7"/>
<defs>
<filter id="filter0_d_7_829" x="0.824983" y="0.690217" width="213.261" height="158.033" filterUnits="userSpaceOnUse" color-interpolation-filters="sRGB">
<feFlood flood-opacity="0" result="BackgroundImageFix"/>
<feColorMatrix in="SourceAlpha" type="matrix" values="0 0 0 0 0 0 0 0 0 0 0 0 0 0 0 0 0 0 127 0" result="hardAlpha"/>
<feOffset dx="7.72283" dy="7.72283"/>
<feGaussianBlur stdDeviation="5.5163"/>
<feColorMatrix type="matrix" values="0 0 0 0 0.298039 0 0 0 0 0.298039 0 0 0 0 0.301961 0 0 0 0.31 0"/>
<feBlend mode="normal" in2="BackgroundImageFix" result="effect1_dropShadow_7_829"/>
<feBlend mode="normal" in="SourceGraphic" in2="effect1_dropShadow_7_829" result="shape"/>
</filter>
<filter id="filter1_d_7_829" x="76.6412" y="15.0907" width="61.6208" height="129.232" filterUnits="userSpaceOnUse" color-interpolation-filters="sRGB">
<feFlood flood-opacity="0" result="BackgroundImageFix"/>
<feColorMatrix in="SourceAlpha" type="matrix" values="0 0 0 0 0 0 0 0 0 0 0 0 0 0 0 0 0 0 127 0" result="hardAlpha"/>
<feOffset dx="7.72283" dy="7.72283"/>
<feGaussianBlur stdDeviation="5.5163"/>
<feColorMatrix type="matrix" values="0 0 0 0 0.298039 0 0 0 0 0.298039 0 0 0 0 0.301961 0 0 0 0.31 0"/>
<feBlend mode="normal" in2="BackgroundImageFix" result="effect1_dropShadow_7_829"/>
<feBlend mode="normal" in="SourceGraphic" in2="effect1_dropShadow_7_829" result="shape"/>
</filter>
<filter id="filter2_d_7_829" x="42.972" y="49.789" width="128.963" height="61.7204" filterUnits="userSpaceOnUse" color-interpolation-filters="sRGB">
<feFlood flood-opacity="0" result="BackgroundImageFix"/>
<feColorMatrix in="SourceAlpha" type="matrix" values="0 0 0 0 0 0 0 0 0 0 0 0 0 0 0 0 0 0 127 0" result="hardAlpha"/>
<feOffset dx="7.72283" dy="7.72283"/>
<feGaussianBlur stdDeviation="5.5163"/>
<feColorMatrix type="matrix" values="0 0 0 0 0.298039 0 0 0 0 0.298039 0 0 0 0 0.301961 0 0 0 0.31 0"/>
<feBlend mode="normal" in2="BackgroundImageFix" result="effect1_dropShadow_7_829"/>
<feBlend mode="normal" in="SourceGraphic" in2="effect1_dropShadow_7_829" result="shape"/>
</filter>
</defs>
</svg>
