<svg width="157" height="40" viewBox="0 0 157 40" fill="none" xmlns="http://www.w3.org/2000/svg">
<g filter="url(#filter0_d_491_2159)">
<path d="M44.7472 1H5.06303C2.81908 1 1 2.82366 1 5.07326V30.9267C1 33.1763 2.81908 35 5.06303 35H44.7472C46.9912 35 48.8103 33.1763 48.8103 30.9267V5.07326C48.8103 2.82366 46.9912 1 44.7472 1Z" fill="#E75A55"/>
</g>
<g filter="url(#filter1_d_491_2159)">
<path d="M19.9586 7.25872V28.744C19.9586 30.2111 21.1449 31.4004 22.6083 31.4004H27.2001C28.6635 31.4004 29.8498 30.2111 29.8498 28.744V7.25872C29.8498 5.79163 28.6635 4.60233 27.2001 4.60233H22.6083C21.1449 4.60233 19.9586 5.79163 19.9586 7.25872Z" fill="#FAE1CA"/>
</g>
<g filter="url(#filter2_d_491_2159)">
<path d="M35.6203 13.2773H14.189C12.7256 13.2773 11.5392 14.4666 11.5392 15.9337V20.5371C11.5392 22.0042 12.7256 23.1935 14.189 23.1935H35.6203C37.0837 23.1935 38.27 22.0042 38.27 20.5371V15.9337C38.27 14.4666 37.0837 13.2773 35.6203 13.2773Z" fill="#FAE1CA"/>
</g>
<path d="M22.0726 7.00669C22.3004 7.00669 22.4851 6.82156 22.4851 6.59319C22.4851 6.36482 22.3004 6.17969 22.0726 6.17969C21.8448 6.17969 21.6602 6.36482 21.6602 6.59319C21.6602 6.82156 21.8448 7.00669 22.0726 7.00669Z" fill="#E4A26F"/>
<path d="M24.9178 7.00669C25.1456 7.00669 25.3303 6.82156 25.3303 6.59319C25.3303 6.36482 25.1456 6.17969 24.9178 6.17969C24.69 6.17969 24.5054 6.36482 24.5054 6.59319C24.5054 6.82156 24.69 7.00669 24.9178 7.00669Z" fill="#E4A26F"/>
<path d="M26.294 11.661C26.5218 11.661 26.7065 11.4759 26.7065 11.2475C26.7065 11.0191 26.5218 10.834 26.294 10.834C26.0662 10.834 25.8815 11.0191 25.8815 11.2475C25.8815 11.4759 26.0662 11.661 26.294 11.661Z" fill="#E4A26F"/>
<path d="M23.225 11.661C23.4528 11.661 23.6375 11.4759 23.6375 11.2475C23.6375 11.0191 23.4528 10.834 23.225 10.834C22.9972 10.834 22.8126 11.0191 22.8126 11.2475C22.8126 11.4759 22.9972 11.661 23.225 11.661Z" fill="#E4A26F"/>
<path d="M27.762 7.00669C27.9898 7.00669 28.1745 6.82156 28.1745 6.59319C28.1745 6.36482 27.9898 6.17969 27.762 6.17969C27.5342 6.17969 27.3495 6.36482 27.3495 6.59319C27.3495 6.82156 27.5342 7.00669 27.762 7.00669Z" fill="#E4A26F"/>
<path d="M22.0726 9.35825C22.3004 9.35825 22.4851 9.17312 22.4851 8.94475C22.4851 8.71638 22.3004 8.53125 22.0726 8.53125C21.8448 8.53125 21.6602 8.71638 21.6602 8.94475C21.6602 9.17312 21.8448 9.35825 22.0726 9.35825Z" fill="#E4A26F"/>
<path d="M24.9178 9.35825C25.1456 9.35825 25.3303 9.17312 25.3303 8.94475C25.3303 8.71638 25.1456 8.53125 24.9178 8.53125C24.69 8.53125 24.5054 8.71638 24.5054 8.94475C24.5054 9.17312 24.69 9.35825 24.9178 9.35825Z" fill="#E4A26F"/>
<path d="M27.762 9.35825C27.9898 9.35825 28.1745 9.17312 28.1745 8.94475C28.1745 8.71638 27.9898 8.53125 27.762 8.53125C27.5342 8.53125 27.3495 8.71638 27.3495 8.94475C27.3495 9.17312 27.5342 9.35825 27.762 9.35825Z" fill="#E4A26F"/>
<path d="M27.762 29.9852C27.9898 29.9852 28.1745 29.8001 28.1745 29.5717C28.1745 29.3433 27.9898 29.1582 27.762 29.1582C27.5342 29.1582 27.3495 29.3433 27.3495 29.5717C27.3495 29.8001 27.5342 29.9852 27.762 29.9852Z" fill="#E4A26F"/>
<path d="M24.9178 29.9852C25.1456 29.9852 25.3303 29.8001 25.3303 29.5717C25.3303 29.3433 25.1456 29.1582 24.9178 29.1582C24.69 29.1582 24.5054 29.3433 24.5054 29.5717C24.5054 29.8001 24.69 29.9852 24.9178 29.9852Z" fill="#E4A26F"/>
<path d="M23.5407 25.3309C23.7685 25.3309 23.9532 25.1458 23.9532 24.9174C23.9532 24.689 23.7685 24.5039 23.5407 24.5039C23.3129 24.5039 23.1282 24.689 23.1282 24.9174C23.1282 25.1458 23.3129 25.3309 23.5407 25.3309Z" fill="#E4A26F"/>
<path d="M26.6107 25.3309C26.8385 25.3309 27.0232 25.1458 27.0232 24.9174C27.0232 24.689 26.8385 24.5039 26.6107 24.5039C26.3829 24.5039 26.1982 24.689 26.1982 24.9174C26.1982 25.1458 26.3829 25.3309 26.6107 25.3309Z" fill="#E4A26F"/>
<path d="M22.0726 29.9852C22.3004 29.9852 22.4851 29.8001 22.4851 29.5717C22.4851 29.3433 22.3004 29.1582 22.0726 29.1582C21.8448 29.1582 21.6602 29.3433 21.6602 29.5717C21.6602 29.8001 21.8448 29.9852 22.0726 29.9852Z" fill="#E4A26F"/>
<path d="M27.762 27.6336C27.9898 27.6336 28.1745 27.4485 28.1745 27.2201C28.1745 26.9918 27.9898 26.8066 27.762 26.8066C27.5342 26.8066 27.3495 26.9918 27.3495 27.2201C27.3495 27.4485 27.5342 27.6336 27.762 27.6336Z" fill="#E4A26F"/>
<path d="M24.9178 27.6336C25.1456 27.6336 25.3303 27.4485 25.3303 27.2201C25.3303 26.9918 25.1456 26.8066 24.9178 26.8066C24.69 26.8066 24.5054 26.9918 24.5054 27.2201C24.5054 27.4485 24.69 27.6336 24.9178 27.6336Z" fill="#E4A26F"/>
<path d="M22.0726 27.6336C22.3004 27.6336 22.4851 27.4485 22.4851 27.2201C22.4851 26.9918 22.3004 26.8066 22.0726 26.8066C21.8448 26.8066 21.6602 26.9918 21.6602 27.2201C21.6602 27.4485 21.8448 27.6336 22.0726 27.6336Z" fill="#E4A26F"/>
<path d="M36.5596 15.8485C36.7874 15.8485 36.9721 15.6634 36.9721 15.435C36.9721 15.2066 36.7874 15.0215 36.5596 15.0215C36.3318 15.0215 36.1472 15.2066 36.1472 15.435C36.1472 15.6634 36.3318 15.8485 36.5596 15.8485Z" fill="#E4A26F"/>
<path d="M36.5596 18.702C36.7874 18.702 36.9721 18.5169 36.9721 18.2885C36.9721 18.0601 36.7874 17.875 36.5596 17.875C36.3318 17.875 36.1472 18.0601 36.1472 18.2885C36.1472 18.5169 36.3318 18.702 36.5596 18.702Z" fill="#E4A26F"/>
<path d="M31.918 20.0809C32.1457 20.0809 32.3304 19.8958 32.3304 19.6674C32.3304 19.439 32.1457 19.2539 31.918 19.2539C31.6902 19.2539 31.5055 19.439 31.5055 19.6674C31.5055 19.8958 31.6902 20.0809 31.918 20.0809Z" fill="#E4A26F"/>
<path d="M31.918 17.0047C32.1457 17.0047 32.3304 16.8196 32.3304 16.5912C32.3304 16.3629 32.1457 16.1777 31.918 16.1777C31.6902 16.1777 31.5055 16.3629 31.5055 16.5912C31.5055 16.8196 31.6902 17.0047 31.918 17.0047Z" fill="#E4A26F"/>
<path d="M36.5596 21.5536C36.7874 21.5536 36.9721 21.3684 36.9721 21.1401C36.9721 20.9117 36.7874 20.7266 36.5596 20.7266C36.3318 20.7266 36.1472 20.9117 36.1472 21.1401C36.1472 21.3684 36.3318 21.5536 36.5596 21.5536Z" fill="#E4A26F"/>
<path d="M34.2148 15.8485C34.4426 15.8485 34.6273 15.6634 34.6273 15.435C34.6273 15.2066 34.4426 15.0215 34.2148 15.0215C33.987 15.0215 33.8024 15.2066 33.8024 15.435C33.8024 15.6634 33.987 15.8485 34.2148 15.8485Z" fill="#E4A26F"/>
<path d="M34.2148 18.7C34.4426 18.7 34.6273 18.5149 34.6273 18.2865C34.6273 18.0582 34.4426 17.873 34.2148 17.873C33.987 17.873 33.8024 18.0582 33.8024 18.2865C33.8024 18.5149 33.987 18.7 34.2148 18.7Z" fill="#E4A26F"/>
<path d="M34.2148 21.5516C34.4426 21.5516 34.6273 21.3665 34.6273 21.1381C34.6273 20.9097 34.4426 20.7246 34.2148 20.7246C33.987 20.7246 33.8024 20.9097 33.8024 21.1381C33.8024 21.3665 33.987 21.5516 34.2148 21.5516Z" fill="#E4A26F"/>
<path d="M13.1666 21.5516C13.3944 21.5516 13.5791 21.3665 13.5791 21.1381C13.5791 20.9097 13.3944 20.7246 13.1666 20.7246C12.9388 20.7246 12.7542 20.9097 12.7542 21.1381C12.7542 21.3665 12.9388 21.5516 13.1666 21.5516Z" fill="#E4A26F"/>
<path d="M13.1666 18.7C13.3944 18.7 13.5791 18.5149 13.5791 18.2865C13.5791 18.0582 13.3944 17.873 13.1666 17.873C12.9388 17.873 12.7542 18.0582 12.7542 18.2865C12.7542 18.5149 12.9388 18.7 13.1666 18.7Z" fill="#E4A26F"/>
<path d="M17.8083 17.3192C18.0361 17.3192 18.2207 17.1341 18.2207 16.9057C18.2207 16.6773 18.0361 16.4922 17.8083 16.4922C17.5805 16.4922 17.3958 16.6773 17.3958 16.9057C17.3958 17.1341 17.5805 17.3192 17.8083 17.3192Z" fill="#E4A26F"/>
<path d="M17.8083 20.3973C18.0361 20.3973 18.2207 20.2122 18.2207 19.9838C18.2207 19.7554 18.0361 19.5703 17.8083 19.5703C17.5805 19.5703 17.3958 19.7554 17.3958 19.9838C17.3958 20.2122 17.5805 20.3973 17.8083 20.3973Z" fill="#E4A26F"/>
<path d="M13.1666 15.8485C13.3944 15.8485 13.5791 15.6634 13.5791 15.435C13.5791 15.2066 13.3944 15.0215 13.1666 15.0215C12.9388 15.0215 12.7542 15.2066 12.7542 15.435C12.7542 15.6634 12.9388 15.8485 13.1666 15.8485Z" fill="#E4A26F"/>
<path d="M15.5124 21.5516C15.7402 21.5516 15.9248 21.3665 15.9248 21.1381C15.9248 20.9097 15.7402 20.7246 15.5124 20.7246C15.2846 20.7246 15.0999 20.9097 15.0999 21.1381C15.0999 21.3665 15.2846 21.5516 15.5124 21.5516Z" fill="#E4A26F"/>
<path d="M15.5124 18.7C15.7402 18.7 15.9248 18.5149 15.9248 18.2865C15.9248 18.0582 15.7402 17.873 15.5124 17.873C15.2846 17.873 15.0999 18.0582 15.0999 18.2865C15.0999 18.5149 15.2846 18.7 15.5124 18.7Z" fill="#E4A26F"/>
<path d="M15.5124 15.8485C15.7402 15.8485 15.9248 15.6634 15.9248 15.435C15.9248 15.2066 15.7402 15.0215 15.5124 15.0215C15.2846 15.0215 15.0999 15.2066 15.0999 15.435C15.0999 15.6634 15.2846 15.8485 15.5124 15.8485Z" fill="#E4A26F"/>
<path d="M29.1988 14.2734H20.6642C20.0235 14.2734 19.504 14.7942 19.504 15.4365V20.9913C19.504 21.6337 20.0235 22.1544 20.6642 22.1544H29.1988C29.8396 22.1544 30.359 21.6337 30.359 20.9913V15.4365C30.359 14.7942 29.8396 14.2734 29.1988 14.2734Z" fill="#F4BA91"/>
<path d="M28.9408 16.1434C29.1686 16.1434 29.3532 15.9583 29.3532 15.7299C29.3532 15.5015 29.1686 15.3164 28.9408 15.3164C28.713 15.3164 28.5283 15.5015 28.5283 15.7299C28.5283 15.9583 28.713 16.1434 28.9408 16.1434Z" fill="#E4A26F"/>
<path d="M28.9408 18.5614C29.1686 18.5614 29.3532 18.3762 29.3532 18.1479C29.3532 17.9195 29.1686 17.7344 28.9408 17.7344C28.713 17.7344 28.5283 17.9195 28.5283 18.1479C28.5283 18.3762 28.713 18.5614 28.9408 18.5614Z" fill="#E4A26F"/>
<path d="M28.9408 20.9774C29.1686 20.9774 29.3532 20.7923 29.3532 20.5639C29.3532 20.3355 29.1686 20.1504 28.9408 20.1504C28.713 20.1504 28.5283 20.3355 28.5283 20.5639C28.5283 20.7923 28.713 20.9774 28.9408 20.9774Z" fill="#E4A26F"/>
<path d="M27.1776 16.1434C27.4054 16.1434 27.5901 15.9583 27.5901 15.7299C27.5901 15.5015 27.4054 15.3164 27.1776 15.3164C26.9498 15.3164 26.7651 15.5015 26.7651 15.7299C26.7651 15.9583 26.9498 16.1434 27.1776 16.1434Z" fill="#E4A26F"/>
<path d="M27.1776 18.5614C27.4054 18.5614 27.5901 18.3762 27.5901 18.1479C27.5901 17.9195 27.4054 17.7344 27.1776 17.7344C26.9498 17.7344 26.7651 17.9195 26.7651 18.1479C26.7651 18.3762 26.9498 18.5614 27.1776 18.5614Z" fill="#E4A26F"/>
<path d="M27.1776 20.9774C27.4054 20.9774 27.5901 20.7923 27.5901 20.5639C27.5901 20.3355 27.4054 20.1504 27.1776 20.1504C26.9498 20.1504 26.7651 20.3355 26.7651 20.5639C26.7651 20.7923 26.9498 20.9774 27.1776 20.9774Z" fill="#E4A26F"/>
<path d="M25.4144 16.1434C25.6421 16.1434 25.8268 15.9583 25.8268 15.7299C25.8268 15.5015 25.6421 15.3164 25.4144 15.3164C25.1866 15.3164 25.0019 15.5015 25.0019 15.7299C25.0019 15.9583 25.1866 16.1434 25.4144 16.1434Z" fill="#E4A26F"/>
<path d="M25.4144 18.5614C25.6421 18.5614 25.8268 18.3762 25.8268 18.1479C25.8268 17.9195 25.6421 17.7344 25.4144 17.7344C25.1866 17.7344 25.0019 17.9195 25.0019 18.1479C25.0019 18.3762 25.1866 18.5614 25.4144 18.5614Z" fill="#E4A26F"/>
<path d="M25.4144 20.9774C25.6421 20.9774 25.8268 20.7923 25.8268 20.5639C25.8268 20.3355 25.6421 20.1504 25.4144 20.1504C25.1866 20.1504 25.0019 20.3355 25.0019 20.5639C25.0019 20.7923 25.1866 20.9774 25.4144 20.9774Z" fill="#E4A26F"/>
<path d="M23.6512 16.1434C23.879 16.1434 24.0636 15.9583 24.0636 15.7299C24.0636 15.5015 23.879 15.3164 23.6512 15.3164C23.4234 15.3164 23.2387 15.5015 23.2387 15.7299C23.2387 15.9583 23.4234 16.1434 23.6512 16.1434Z" fill="#E4A26F"/>
<path d="M21.3308 17.4188C21.5586 17.4188 21.7433 17.2337 21.7433 17.0053C21.7433 16.7769 21.5586 16.5918 21.3308 16.5918C21.103 16.5918 20.9183 16.7769 20.9183 17.0053C20.9183 17.2337 21.103 17.4188 21.3308 17.4188Z" fill="#E4A26F"/>
<path d="M21.3308 20.1961C21.5586 20.1961 21.7433 20.011 21.7433 19.7826C21.7433 19.5543 21.5586 19.3691 21.3308 19.3691C21.103 19.3691 20.9183 19.5543 20.9183 19.7826C20.9183 20.011 21.103 20.1961 21.3308 20.1961Z" fill="#E4A26F"/>
<path d="M23.6512 18.5614C23.879 18.5614 24.0636 18.3762 24.0636 18.1479C24.0636 17.9195 23.879 17.7344 23.6512 17.7344C23.4234 17.7344 23.2387 17.9195 23.2387 18.1479C23.2387 18.3762 23.4234 18.5614 23.6512 18.5614Z" fill="#E4A26F"/>
<path d="M23.6512 20.9774C23.879 20.9774 24.0636 20.7923 24.0636 20.5639C24.0636 20.3355 23.879 20.1504 23.6512 20.1504C23.4234 20.1504 23.2387 20.3355 23.2387 20.5639C23.2387 20.7923 23.4234 20.9774 23.6512 20.9774Z" fill="#E4A26F"/>
<path d="M62.2319 19V7.99697H64.6211L68.6294 14.5202L66.9161 14.5045L70.9715 7.99697H73.2664V19H70.6728V15.5733C70.6728 14.6302 70.6938 13.7814 70.7357 13.0269C70.7881 12.2724 70.8719 11.5232 70.9872 10.7792L71.2858 11.5965L68.2364 16.3278H67.199L64.2125 11.628L64.5111 10.7792C64.6264 11.4813 64.705 12.2043 64.7469 12.9483C64.7993 13.6819 64.8255 14.5569 64.8255 15.5733V19H62.2319ZM76.0318 19V7.99697H83.7024V10.2762H78.6253V16.7208H83.8596V19H76.0318ZM77.2892 14.4888V12.3196H82.9951V14.4888H77.2892ZM86.1629 19V7.99697H90.7685C91.5753 7.99697 92.3141 8.13319 92.9848 8.40565C93.6554 8.66763 94.2318 9.04487 94.7138 9.53739C95.2063 10.0299 95.5836 10.6115 95.8456 11.2822C96.1075 11.9528 96.2385 12.6916 96.2385 13.4985C96.2385 14.3054 96.1075 15.0494 95.8456 15.7305C95.5836 16.4012 95.2063 16.9828 94.7138 17.4753C94.2318 17.9573 93.6554 18.3346 92.9848 18.607C92.3141 18.869 91.5753 19 90.7685 19H86.1629ZM88.8351 17.1766L88.4735 16.6422H90.6899C91.13 16.6422 91.5229 16.5689 91.8688 16.4221C92.2146 16.265 92.508 16.0501 92.749 15.7777C93.0005 15.5052 93.1944 15.1751 93.3306 14.7874C93.4668 14.3997 93.5349 13.97 93.5349 13.4985C93.5349 13.0269 93.4668 12.5973 93.3306 12.2096C93.1944 11.8218 93.0005 11.4917 92.749 11.2193C92.508 10.9468 92.2146 10.7372 91.8688 10.5905C91.5229 10.4334 91.13 10.3548 90.6899 10.3548H88.4264L88.8351 9.85176V17.1766ZM97.8546 19V16.7522H99.7094V10.2447H97.8546V7.99697H104.252V10.2447H102.382V16.7522H104.252V19H97.8546ZM106.794 19V7.99697H109.466V16.6422H114.37V19H106.794ZM116.152 19V16.7522H118.007V10.2447H116.152V7.99697H122.55V10.2447H120.679V16.7522H122.55V19H116.152ZM128.172 19L123.771 7.99697H126.553L128.675 13.6085C128.801 13.9334 128.905 14.2163 128.989 14.4573C129.084 14.6983 129.162 14.9236 129.225 15.1332C129.298 15.3428 129.361 15.5576 129.414 15.7777C129.477 15.9873 129.545 16.2283 129.618 16.5007H129.131C129.215 16.1445 129.298 15.8301 129.382 15.5576C129.466 15.2747 129.56 14.9865 129.665 14.6931C129.77 14.3892 129.901 14.0277 130.058 13.6085L132.102 7.99697H134.837L130.404 19H128.172ZM136.281 19V7.99697H143.952V10.2762H138.875V16.7208H144.109V19H136.281ZM137.539 14.4888V12.3196H143.245V14.4888H137.539ZM146.412 19V7.99697H151.364C152.066 7.99697 152.7 8.14891 153.266 8.45281C153.842 8.7567 154.293 9.17586 154.618 9.7103C154.942 10.2343 155.105 10.8316 155.105 11.5022C155.105 12.1938 154.942 12.8173 154.618 13.3727C154.293 13.9176 153.847 14.3473 153.282 14.6617C152.716 14.976 152.076 15.1332 151.364 15.1332H148.959V19H146.412ZM152.511 19L149.713 14.0329L152.448 13.64L155.561 19H152.511ZM148.959 13.0898H151.128C151.401 13.0898 151.636 13.0322 151.835 12.9169C152.045 12.7911 152.202 12.6182 152.307 12.3982C152.422 12.1781 152.48 11.9266 152.48 11.6437C152.48 11.3608 152.417 11.1145 152.291 10.9049C152.166 10.6849 151.982 10.5172 151.741 10.4019C151.511 10.2866 151.228 10.229 150.892 10.229H148.959V13.0898Z" fill="#E2AD5F"/>
<path d="M62.937 31V25.1306H63.8258L65.9639 28.6103L65.5363 28.6019L67.6996 25.1306H68.5381V31H67.6325V28.5935C67.6325 28.0904 67.6437 27.6377 67.666 27.2352C67.694 26.8327 67.7387 26.433 67.8002 26.0361L67.9176 26.3464L65.9974 29.3146H65.444L63.5826 26.3799L63.6748 26.0361C63.7363 26.4107 63.7782 26.7964 63.8006 27.1933C63.8285 27.5846 63.8425 28.0513 63.8425 28.5935V31H62.937ZM73.6969 31.0838C73.2442 31.0838 72.8417 30.9888 72.4895 30.7988C72.1429 30.6031 71.869 30.3376 71.6678 30.0022C71.4721 29.6668 71.3743 29.2811 71.3743 28.8451C71.3743 28.4985 71.4302 28.1827 71.542 27.8976C71.6538 27.6125 71.8075 27.3665 72.0032 27.1597C72.2044 26.9473 72.442 26.7852 72.7159 26.6734C72.9954 26.556 73.2973 26.4973 73.6215 26.4973C73.9066 26.4973 74.1721 26.5532 74.418 26.665C74.664 26.7712 74.8764 26.9193 75.0553 27.1094C75.2398 27.2995 75.3795 27.5259 75.4745 27.7886C75.5752 28.0457 75.6227 28.328 75.6171 28.6355L75.6087 29.0044H72.0116L71.8187 28.3168H74.8624L74.7367 28.4594V28.2581C74.7199 28.0737 74.6584 27.9088 74.5522 27.7634C74.446 27.6181 74.3118 27.5035 74.1497 27.4196C73.9876 27.3358 73.8115 27.2939 73.6215 27.2939C73.3196 27.2939 73.0653 27.3526 72.8584 27.47C72.6516 27.5818 72.4951 27.7495 72.3889 27.9731C72.2827 28.1911 72.2296 28.4622 72.2296 28.7864C72.2296 29.0938 72.2939 29.3621 72.4224 29.5913C72.551 29.8149 72.7327 29.9882 72.9675 30.1112C73.2022 30.2342 73.4733 30.2957 73.7808 30.2957C73.9988 30.2957 74.2 30.2593 74.3845 30.1867C74.5746 30.114 74.7786 29.9826 74.9966 29.7926L75.4326 30.4047C75.2985 30.5388 75.1336 30.6562 74.9379 30.7568C74.7478 30.8575 74.5438 30.9385 74.3258 31C74.1134 31.0559 73.9038 31.0838 73.6969 31.0838ZM80.0689 31.0838C79.6665 31.0838 79.3059 30.986 78.9873 30.7904C78.6743 30.5891 78.4255 30.318 78.241 29.977C78.0566 29.6305 77.9643 29.2364 77.9643 28.7948C77.9643 28.3532 78.0538 27.9619 78.2326 27.6209C78.4171 27.2743 78.6659 27.0032 78.9789 26.8075C79.2919 26.6063 79.6469 26.5057 80.0438 26.5057C80.2618 26.5057 80.4714 26.542 80.6727 26.6147C80.8795 26.6818 81.0639 26.7768 81.2261 26.8998C81.3882 27.0172 81.5139 27.1485 81.6034 27.2939C81.6984 27.4336 81.7459 27.5762 81.7459 27.7215L81.4944 27.7383V24.7952H82.358V31H81.4944V29.9519H81.6621C81.6621 30.086 81.6174 30.2202 81.5279 30.3544C81.4385 30.4829 81.3183 30.6031 81.1674 30.7149C81.022 30.8267 80.8515 30.9162 80.6559 30.9832C80.4658 31.0503 80.2702 31.0838 80.0689 31.0838ZM80.1863 30.3376C80.4491 30.3376 80.681 30.2705 80.8823 30.1364C81.0835 30.0022 81.24 29.8205 81.3518 29.5913C81.4692 29.3566 81.5279 29.091 81.5279 28.7948C81.5279 28.4985 81.4692 28.2358 81.3518 28.0066C81.24 27.7718 81.0835 27.5873 80.8823 27.4532C80.681 27.319 80.4491 27.2519 80.1863 27.2519C79.9236 27.2519 79.6916 27.319 79.4904 27.4532C79.2891 27.5873 79.1298 27.7718 79.0124 28.0066C78.9006 28.2358 78.8447 28.4985 78.8447 28.7948C78.8447 29.091 78.9006 29.3566 79.0124 29.5913C79.1298 29.8205 79.2891 30.0022 79.4904 30.1364C79.6916 30.2705 79.9236 30.3376 80.1863 30.3376ZM85.3664 31V26.5979H86.2301V31H85.3664ZM85.7857 25.6253C85.6012 25.6253 85.4587 25.5778 85.358 25.4827C85.2574 25.3877 85.2071 25.2535 85.2071 25.0803C85.2071 24.9182 85.2574 24.7868 85.358 24.6862C85.4643 24.5856 85.6068 24.5352 85.7857 24.5352C85.9701 24.5352 86.1127 24.5828 86.2133 24.6778C86.3139 24.7728 86.3642 24.907 86.3642 25.0803C86.3642 25.2424 86.3111 25.3737 86.2049 25.4744C86.1043 25.575 85.9645 25.6253 85.7857 25.6253ZM91.1044 31.0838C90.6963 31.0838 90.3302 30.9832 90.006 30.782C89.6873 30.5808 89.433 30.3068 89.2429 29.9603C89.0585 29.6137 88.9662 29.2252 88.9662 28.7948C88.9662 28.3643 89.0585 27.9758 89.2429 27.6293C89.433 27.2827 89.6873 27.0088 90.006 26.8075C90.3302 26.6063 90.6963 26.5057 91.1044 26.5057C91.4957 26.5057 91.8506 26.5867 92.1693 26.7489C92.4935 26.9054 92.7394 27.1206 92.9071 27.3945L92.4292 27.9814C92.3398 27.8529 92.2252 27.7355 92.0854 27.6293C91.9457 27.5231 91.7975 27.4392 91.641 27.3777C91.4845 27.3162 91.3336 27.2855 91.1882 27.2855C90.9199 27.2855 90.6796 27.3526 90.4671 27.4867C90.2603 27.6153 90.0954 27.7942 89.9724 28.0234C89.8494 28.2525 89.788 28.5097 89.788 28.7948C89.788 29.0799 89.8522 29.337 89.9808 29.5662C90.1094 29.7898 90.2799 29.9687 90.4923 30.1028C90.7047 30.237 90.9395 30.3041 91.1966 30.3041C91.3475 30.3041 91.4929 30.2789 91.6326 30.2286C91.778 30.1783 91.9177 30.1028 92.0519 30.0022C92.186 29.9016 92.3118 29.7786 92.4292 29.6333L92.9071 30.2202C92.7283 30.4718 92.4711 30.6786 92.1357 30.8407C91.8059 31.0028 91.4621 31.0838 91.1044 31.0838ZM97.0925 31.0838C96.7292 31.0838 96.3966 30.9832 96.0947 30.782C95.7984 30.5808 95.5609 30.3068 95.382 29.9603C95.2031 29.6137 95.1137 29.2224 95.1137 28.7864C95.1137 28.3448 95.2031 27.9535 95.382 27.6125C95.5665 27.2659 95.8124 26.9948 96.1199 26.7992C96.4329 26.6035 96.7823 26.5057 97.168 26.5057C97.3972 26.5057 97.6068 26.5392 97.7968 26.6063C97.9869 26.6734 98.1518 26.7684 98.2916 26.8914C98.4369 27.0088 98.5543 27.1457 98.6437 27.3023C98.7387 27.4588 98.7974 27.6265 98.8198 27.8054L98.627 27.7383V26.5979H99.499V31H98.627V29.9519L98.8282 29.8932C98.7946 30.0441 98.7248 30.1923 98.6186 30.3376C98.5179 30.4773 98.3866 30.6031 98.2245 30.7149C98.068 30.8267 97.8919 30.9162 97.6962 30.9832C97.5062 31.0503 97.3049 31.0838 97.0925 31.0838ZM97.3189 30.2873C97.5816 30.2873 97.8136 30.223 98.0149 30.0944C98.2161 29.9659 98.3726 29.7898 98.4844 29.5662C98.6018 29.337 98.6605 29.0771 98.6605 28.7864C98.6605 28.5013 98.6018 28.247 98.4844 28.0234C98.3726 27.7998 98.2161 27.6237 98.0149 27.4951C97.8136 27.3665 97.5816 27.3023 97.3189 27.3023C97.0618 27.3023 96.8326 27.3665 96.6313 27.4951C96.4357 27.6237 96.2792 27.7998 96.1618 28.0234C96.05 28.247 95.9941 28.5013 95.9941 28.7864C95.9941 29.0771 96.05 29.337 96.1618 29.5662C96.2792 29.7898 96.4357 29.9659 96.6313 30.0944C96.8326 30.223 97.0618 30.2873 97.3189 30.2873ZM102.399 31V24.7952H103.262V31H102.399ZM110.408 31V25.1306H112.706C113.125 25.1306 113.502 25.2004 113.838 25.3402C114.179 25.4799 114.469 25.6812 114.71 25.9439C114.95 26.2066 115.135 26.5169 115.263 26.8746C115.392 27.2324 115.456 27.6293 115.456 28.0653C115.456 28.5013 115.392 28.901 115.263 29.2643C115.135 29.6221 114.95 29.9323 114.71 30.195C114.475 30.4522 114.187 30.6506 113.846 30.7904C113.505 30.9301 113.125 31 112.706 31H110.408ZM111.314 30.2202L111.289 30.128H112.664C112.96 30.128 113.223 30.0805 113.452 29.9854C113.687 29.8904 113.882 29.7562 114.039 29.583C114.201 29.4041 114.324 29.1861 114.408 28.9289C114.492 28.6718 114.534 28.3839 114.534 28.0653C114.534 27.7467 114.492 27.4616 114.408 27.21C114.324 26.9529 114.201 26.7349 114.039 26.556C113.877 26.3771 113.681 26.2402 113.452 26.1451C113.223 26.0501 112.96 26.0026 112.664 26.0026H111.264L111.314 25.9271V30.2202ZM120.194 31.0838C119.741 31.0838 119.339 30.9888 118.986 30.7988C118.64 30.6031 118.366 30.3376 118.165 30.0022C117.969 29.6668 117.871 29.2811 117.871 28.8451C117.871 28.4985 117.927 28.1827 118.039 27.8976C118.151 27.6125 118.304 27.3665 118.5 27.1597C118.701 26.9473 118.939 26.7852 119.213 26.6734C119.492 26.556 119.794 26.4973 120.118 26.4973C120.403 26.4973 120.669 26.5532 120.915 26.665C121.161 26.7712 121.373 26.9193 121.552 27.1094C121.737 27.2995 121.876 27.5259 121.971 27.7886C122.072 28.0457 122.12 28.328 122.114 28.6355L122.106 29.0044H118.508L118.316 28.3168H121.359L121.234 28.4594V28.2581C121.217 28.0737 121.155 27.9088 121.049 27.7634C120.943 27.6181 120.809 27.5035 120.647 27.4196C120.485 27.3358 120.308 27.2939 120.118 27.2939C119.817 27.2939 119.562 27.3526 119.355 27.47C119.149 27.5818 118.992 27.7495 118.886 27.9731C118.78 28.1911 118.726 28.4622 118.726 28.7864C118.726 29.0938 118.791 29.3621 118.919 29.5913C119.048 29.8149 119.23 29.9882 119.464 30.1112C119.699 30.2342 119.97 30.2957 120.278 30.2957C120.496 30.2957 120.697 30.2593 120.881 30.1867C121.071 30.114 121.275 29.9826 121.493 29.7926L121.93 30.4047C121.795 30.5388 121.63 30.6562 121.435 30.7568C121.245 30.8575 121.041 30.9385 120.823 31C120.61 31.0559 120.401 31.0838 120.194 31.0838ZM124.746 31V24.7952H125.61V31H124.746ZM128.653 31V26.5979H129.517V31H128.653ZM129.073 25.6253C128.888 25.6253 128.746 25.5778 128.645 25.4827C128.544 25.3877 128.494 25.2535 128.494 25.0803C128.494 24.9182 128.544 24.7868 128.645 24.6862C128.751 24.5856 128.894 24.5352 129.073 24.5352C129.257 24.5352 129.4 24.5828 129.5 24.6778C129.601 24.7728 129.651 24.907 129.651 25.0803C129.651 25.2424 129.598 25.3737 129.492 25.4744C129.391 25.575 129.252 25.6253 129.073 25.6253ZM133.964 31L132.102 26.5979H133.033L134.375 29.8932L134.215 29.9687L135.649 26.5979H136.538L134.584 31H133.964ZM140.937 31.0838C140.484 31.0838 140.081 30.9888 139.729 30.7988C139.383 30.6031 139.109 30.3376 138.907 30.0022C138.712 29.6668 138.614 29.2811 138.614 28.8451C138.614 28.4985 138.67 28.1827 138.782 27.8976C138.894 27.6125 139.047 27.3665 139.243 27.1597C139.444 26.9473 139.682 26.7852 139.956 26.6734C140.235 26.556 140.537 26.4973 140.861 26.4973C141.146 26.4973 141.412 26.5532 141.658 26.665C141.904 26.7712 142.116 26.9193 142.295 27.1094C142.479 27.2995 142.619 27.5259 142.714 27.7886C142.815 28.0457 142.862 28.328 142.857 28.6355L142.848 29.0044H139.251L139.058 28.3168H142.102L141.976 28.4594V28.2581C141.96 28.0737 141.898 27.9088 141.792 27.7634C141.686 27.6181 141.552 27.5035 141.389 27.4196C141.227 27.3358 141.051 27.2939 140.861 27.2939C140.559 27.2939 140.305 27.3526 140.098 27.47C139.891 27.5818 139.735 27.7495 139.629 27.9731C139.522 28.1911 139.469 28.4622 139.469 28.7864C139.469 29.0938 139.534 29.3621 139.662 29.5913C139.791 29.8149 139.972 29.9882 140.207 30.1112C140.442 30.2342 140.713 30.2957 141.02 30.2957C141.238 30.2957 141.44 30.2593 141.624 30.1867C141.814 30.114 142.018 29.9826 142.236 29.7926L142.672 30.4047C142.538 30.5388 142.373 30.6562 142.178 30.7568C141.988 30.8575 141.784 30.9385 141.566 31C141.353 31.0559 141.143 31.0838 140.937 31.0838ZM145.472 31V26.5979H146.344V27.9814L146.261 27.646C146.322 27.4336 146.425 27.2408 146.571 27.0675C146.722 26.8942 146.892 26.7572 147.082 26.6566C147.278 26.556 147.479 26.5057 147.686 26.5057C147.781 26.5057 147.87 26.5141 147.954 26.5308C148.044 26.5476 148.114 26.5672 148.164 26.5895L147.937 27.5287C147.87 27.5007 147.795 27.4783 147.711 27.4616C147.633 27.4392 147.555 27.428 147.476 27.428C147.325 27.428 147.18 27.4588 147.04 27.5203C146.906 27.5762 146.786 27.6572 146.68 27.7634C146.579 27.864 146.498 27.9842 146.437 28.124C146.375 28.2581 146.344 28.4063 146.344 28.5684V31H145.472ZM151.269 32.9285L152.158 30.8742L152.166 31.5618L149.969 26.5979H150.976L152.351 29.8345C152.379 29.8904 152.412 29.977 152.451 30.0944C152.49 30.2062 152.524 30.318 152.552 30.4298L152.334 30.4801C152.379 30.3627 152.421 30.2454 152.46 30.128C152.504 30.0106 152.546 29.8932 152.585 29.7758L153.734 26.5979H154.757L152.946 31L152.2 32.9285H151.269Z" fill="#6E6A7C"/>
<defs>
<filter id="filter0_d_491_2159" x="0.172359" y="0.172359" width="53.3279" height="39.5176" filterUnits="userSpaceOnUse" color-interpolation-filters="sRGB">
<feFlood flood-opacity="0" result="BackgroundImageFix"/>
<feColorMatrix in="SourceAlpha" type="matrix" values="0 0 0 0 0 0 0 0 0 0 0 0 0 0 0 0 0 0 127 0" result="hardAlpha"/>
<feOffset dx="1.93116" dy="1.93116"/>
<feGaussianBlur stdDeviation="1.3794"/>
<feColorMatrix type="matrix" values="0 0 0 0 0.298039 0 0 0 0 0.298039 0 0 0 0 0.301961 0 0 0 0.31 0"/>
<feBlend mode="normal" in2="BackgroundImageFix" result="effect1_dropShadow_491_2159"/>
<feBlend mode="normal" in="SourceGraphic" in2="effect1_dropShadow_491_2159" result="shape"/>
</filter>
<filter id="filter1_d_491_2159" x="19.1309" y="3.77392" width="15.4088" height="32.3164" filterUnits="userSpaceOnUse" color-interpolation-filters="sRGB">
<feFlood flood-opacity="0" result="BackgroundImageFix"/>
<feColorMatrix in="SourceAlpha" type="matrix" values="0 0 0 0 0 0 0 0 0 0 0 0 0 0 0 0 0 0 127 0" result="hardAlpha"/>
<feOffset dx="1.93116" dy="1.93116"/>
<feGaussianBlur stdDeviation="1.3794"/>
<feColorMatrix type="matrix" values="0 0 0 0 0.298039 0 0 0 0 0.298039 0 0 0 0 0.301961 0 0 0 0.31 0"/>
<feBlend mode="normal" in2="BackgroundImageFix" result="effect1_dropShadow_491_2159"/>
<feBlend mode="normal" in="SourceGraphic" in2="effect1_dropShadow_491_2159" result="shape"/>
</filter>
<filter id="filter2_d_491_2159" x="10.7116" y="12.4497" width="32.2484" height="15.4336" filterUnits="userSpaceOnUse" color-interpolation-filters="sRGB">
<feFlood flood-opacity="0" result="BackgroundImageFix"/>
<feColorMatrix in="SourceAlpha" type="matrix" values="0 0 0 0 0 0 0 0 0 0 0 0 0 0 0 0 0 0 127 0" result="hardAlpha"/>
<feOffset dx="1.93116" dy="1.93116"/>
<feGaussianBlur stdDeviation="1.3794"/>
<feColorMatrix type="matrix" values="0 0 0 0 0.298039 0 0 0 0 0.298039 0 0 0 0 0.301961 0 0 0 0.31 0"/>
<feBlend mode="normal" in2="BackgroundImageFix" result="effect1_dropShadow_491_2159"/>
<feBlend mode="normal" in="SourceGraphic" in2="effect1_dropShadow_491_2159" result="shape"/>
</filter>
</defs>
</svg>
