<svg width="16" height="16" viewBox="0 0 16 16" fill="none" xmlns="http://www.w3.org/2000/svg">
<path d="M7.782 4.81465C7.198 4.81465 6.294 4.15065 5.342 4.17465C4.086 4.19065 2.934 4.90265 2.286 6.03065C0.981998 8.29465 1.95 11.6387 3.222 13.4787C3.846 14.3747 4.582 15.3827 5.558 15.3506C6.494 15.3106 6.846 14.7427 7.982 14.7427C9.11 14.7427 9.43 15.3507 10.422 15.3267C11.43 15.3107 12.07 14.4147 12.686 13.5107C13.398 12.4707 13.694 11.4627 13.71 11.4067C13.686 11.3987 11.75 10.6546 11.726 8.41465C11.71 6.54265 13.254 5.64665 13.326 5.60665C12.446 4.31865 11.094 4.17465 10.622 4.14265C9.39 4.04665 8.358 4.81465 7.782 4.81465ZM9.862 2.92665C10.382 2.30265 10.726 1.43065 10.63 0.56665C9.886 0.59865 8.99 1.06265 8.454 1.68665C7.974 2.23865 7.558 3.12665 7.67 3.97465C8.494 4.03865 9.342 3.55065 9.862 2.92665Z" fill="black"/>
</svg>
